<svg xmlns="http://www.w3.org/2000/svg" xmlns:xlink="http://www.w3.org/1999/xlink" width="322.641" height="290.86" viewBox="0 0 322.641 290.86">
    <defs>
        <linearGradient id="linear-gradient" x2="1" y1=".5" y2=".5" gradientUnits="objectBoundingBox">
            <stop offset="0" stop-color="#484ba3"/>
            <stop offset="1" stop-color="#6468cc"/>
        </linearGradient>
        <linearGradient id="linear-gradient-3" x1=".5" x2=".5" y1="1" y2="0" xlink:href="#linear-gradient"/>
        <style>
            .cls-1{fill:#7048a3}.cls-3{fill:url(#linear-gradient)}.cls-4{opacity:.2}.cls-6,.cls-9{opacity:.1}.cls-7{fill:#ffb227}.cls-8{opacity:.3}.cls-10{fill:#fff}.cls-11{fill:#ff58d5}.cls-13{fill:#002b66}.cls-14,.cls-15{fill:#005898}.cls-15{mix-blend-mode:screen;isolation:isolate}
        </style>
    </defs>
    <g id="Group_34" data-name="Group 34" transform="translate(-49.089 -47.15)">
        <g id="Group_32" data-name="Group 32" transform="translate(57.629 47.15)">
            <g id="Group_10" data-name="Group 10" transform="translate(4.212)">
                <g id="Group_7" data-name="Group 7" transform="translate(12.383 275.163)">
                    <path id="Path_11" d="M82.2 400.192a1.06 1.06 0 0 1-1.059-1.059.963.963 0 0 1 .021-.2c.014-.07.035-.133.056-.2a1.418 1.418 0 0 1 .1-.176 1.02 1.02 0 0 1 .134-.162 1.076 1.076 0 0 1 .162-.135 1.189 1.189 0 0 1 .183-.1 1.482 1.482 0 0 1 .2-.056 1 1 0 0 1 .409 0 1.482 1.482 0 0 1 .2.056 1.637 1.637 0 0 1 .183.1 1.6 1.6 0 0 1 .162.135 1.02 1.02 0 0 1 .134.162.838.838 0 0 1 .092.176 1.175 1.175 0 0 1 .064.2.964.964 0 0 1 .02.2 1.057 1.057 0 0 1-.31.748 1.07 1.07 0 0 1-.751.311z" class="cls-1" data-name="Path 11" transform="translate(-81.145 -398.076)"/>
                </g>
                <g id="Group_8" data-name="Group 8">
                    <path id="Path_12" d="M311.633 322.214a1.054 1.054 0 0 1 .388-1.447 1.061 1.061 0 0 1 1.446.4 1.054 1.054 0 0 1-.394 1.44 1.012 1.012 0 0 1-.522.141 1.052 1.052 0 0 1-.918-.534zm-237.171-2.73a1.063 1.063 0 0 1 .275-1.475 1.065 1.065 0 0 1 1.475.282 1.062 1.062 0 0 1-.282 1.467 1.025 1.025 0 0 1-.593.184 1.065 1.065 0 0 1-.875-.458zm242.032-.17a1.053 1.053 0 0 1 .318-1.46 1.054 1.054 0 0 1 1.46.318 1.055 1.055 0 0 1-.317 1.461 1.058 1.058 0 0 1-.572.169 1.053 1.053 0 0 1-.89-.488zm4.706-3.147a1.059 1.059 0 0 1 .233-1.481 1.061 1.061 0 0 1 1.481.24 1.058 1.058 0 0 1-.24 1.474 1.046 1.046 0 0 1-.62.2 1.058 1.058 0 0 1-.854-.433zm-249.715-1.643a1.058 1.058 0 0 1 .445-1.425 1.054 1.054 0 0 1 1.433.444 1.059 1.059 0 0 1-.445 1.426 1.022 1.022 0 0 1-.494.12 1.059 1.059 0 0 1-.939-.565zm254.244-1.749a1.057 1.057 0 0 1 .163-1.489 1.056 1.056 0 0 1 1.488.162 1.048 1.048 0 0 1-.162 1.482 1.037 1.037 0 0 1-.663.239 1.081 1.081 0 0 1-.826-.394zm-256.643-3.5a1.063 1.063 0 0 1 .6-1.376 1.057 1.057 0 0 1 1.368.6 1.052 1.052 0 0 1-.6 1.369 1.054 1.054 0 0 1-.381.078 1.06 1.06 0 0 1-.987-.671zm261-.128a1.051 1.051 0 0 1 .085-1.488 1.054 1.054 0 0 1 1.5.085 1.052 1.052 0 0 1-.085 1.488 1.036 1.036 0 0 1-.706.268 1.04 1.04 0 0 1-.798-.353zm4.163-3.837a1.058 1.058 0 0 1 .007-1.5 1.058 1.058 0 0 1 1.5.007 1.068 1.068 0 0 1-.007 1.5v-.007a1.053 1.053 0 0 1-.749.31 1.042 1.042 0 0 1-.755-.31zm-266.98-1.517a1.054 1.054 0 0 1 .741-1.3 1.063 1.063 0 0 1 1.306.74 1.066 1.066 0 0 1-.741 1.3 1.015 1.015 0 0 1-.282.042 1.067 1.067 0 0 1-1.028-.782zm270.945-2.526a1.053 1.053 0 0 1-.071-1.5 1.06 1.06 0 0 1 1.5-.064 1.06 1.06 0 0 1 .071 1.5 1.065 1.065 0 0 1-.783.339 1.049 1.049 0 0 1-.721-.275zm-272.183-3.11h.007a1.052 1.052 0 0 1 .868-1.215 1.062 1.062 0 0 1 1.22.868 1.067 1.067 0 0 1-.875 1.221 1.375 1.375 0 0 1-.176.014 1.065 1.065 0 0 1-1.044-.888zm275.932-1.123a1.064 1.064 0 0 1-.14-1.5 1.06 1.06 0 0 1 1.488-.133 1.054 1.054 0 0 1 .141 1.489 1.037 1.037 0 0 1-.812.381 1.062 1.062 0 0 1-.677-.237zM65.4 292.419a1.057 1.057 0 0 1 1-1.114 1.056 1.056 0 0 1 1.114 1 1.054 1.054 0 0 1-.987 1.114h-.064a1.058 1.058 0 0 1-1.063-1zm280.109.2a1.059 1.059 0 0 1-.212-1.482 1.061 1.061 0 0 1 1.481-.219 1.059 1.059 0 0 1 .212 1.482 1.04 1.04 0 0 1-.847.43 1.068 1.068 0 0 1-.638-.212zm3.323-4.586a1.058 1.058 0 0 1-.289-1.468 1.066 1.066 0 0 1 1.474-.289 1.061 1.061 0 0 1 .282 1.468 1.051 1.051 0 0 1-.875.466 1.072 1.072 0 0 1-.596-.179zm-282.466-.275a1.056 1.056 0 0 1-1.009-1.1 1.056 1.056 0 0 1 1.1-1.008 1.047 1.047 0 0 1 1.008 1.1 1.05 1.05 0 0 1-1.051 1.009h-.049zm285.556-4.473a1.057 1.057 0 0 1-.36-1.454 1.063 1.063 0 0 1 1.453-.36 1.057 1.057 0 0 1 .36 1.453 1.056 1.056 0 0 1-.91.516 1.032 1.032 0 0 1-.546-.156zm-285.115-1.173a1.061 1.061 0 0 1-.889-1.207 1.053 1.053 0 0 1 1.206-.881 1.06 1.06 0 0 1 .889 1.206 1.065 1.065 0 0 1-1.044.9.6.6 0 0 1-.162-.018zm287.961-3.718a1.057 1.057 0 0 1-.43-1.432 1.058 1.058 0 0 1 1.439-.43 1.055 1.055 0 0 1 .424 1.432h.006a1.073 1.073 0 0 1-.938.557 1.075 1.075 0 0 1-.5-.127zm-286.917-1.841a1.056 1.056 0 0 1-.741-1.3h-.01a1.064 1.064 0 0 1 1.3-.748 1.059 1.059 0 0 1 .748 1.3 1.056 1.056 0 0 1-1.023.783 1.331 1.331 0 0 1-.274-.035zm289.521-3.183a1.068 1.068 0 0 1-.5-1.411 1.064 1.064 0 0 1 1.411-.508 1.059 1.059 0 0 1 .5 1.411v.006a1.045 1.045 0 0 1-.953.6 1.153 1.153 0 0 1-.458-.098zm-287.856-2.228a1.057 1.057 0 0 1-.593-1.376 1.061 1.061 0 0 1 1.375-.593 1.065 1.065 0 0 1 .594 1.375 1.067 1.067 0 0 1-.988.67 1.1 1.1 0 0 1-.388-.076zm290.213-2.929a1.053 1.053 0 0 1-.572-1.382 1.064 1.064 0 0 1 1.383-.572 1.068 1.068 0 0 1 .572 1.384 1.062 1.062 0 0 1-.981.655 1 1 0 0 1-.402-.085zM71.8 265.962a1.064 1.064 0 0 1-.423-1.439 1.049 1.049 0 0 1 1.423-.423 1.058 1.058 0 0 1 .43 1.433 1.066 1.066 0 0 1-.939.558 1.079 1.079 0 0 1-.491-.129zm290.01-3.012a1.059 1.059 0 0 1-.642-1.348 1.062 1.062 0 0 1 1.355-.642 1.052 1.052 0 0 1 .642 1.348 1.059 1.059 0 0 1-1 .706 1.1 1.1 0 0 1-.355-.064zm-287.172-1.884a1.063 1.063 0 0 1-.289-1.467 1.05 1.05 0 0 1 1.468-.289 1.057 1.057 0 0 1 .3 1.467 1.073 1.073 0 0 1-.882.466 1.076 1.076 0 0 1-.597-.177zm288.985-3.478a1.057 1.057 0 0 1-.706-1.32 1.05 1.05 0 0 1 1.313-.706 1.048 1.048 0 0 1 .713 1.312 1.056 1.056 0 0 1-1.016.755 1.2 1.2 0 0 1-.304-.041zM77.9 256.437a1.063 1.063 0 0 1-.183-1.488 1.055 1.055 0 0 1 1.482-.183 1.05 1.05 0 0 1 .191 1.481 1.054 1.054 0 0 1-.84.416 1.083 1.083 0 0 1-.65-.226zm3.549-4.416a1.053 1.053 0 0 1-.12-1.488 1.052 1.052 0 0 1 1.489-.121 1.054 1.054 0 0 1 .12 1.489 1.061 1.061 0 0 1-.8.374 1.043 1.043 0 0 1-.691-.254zm283.707.12a1.063 1.063 0 0 1-.775-1.284 1.055 1.055 0 0 1 1.277-.777 1.06 1.06 0 0 1 .783 1.277 1.067 1.067 0 0 1-1.03.812 1.564 1.564 0 0 1-.257-.028zm-280-4.4a1.065 1.065 0 0 1-.085-1.5 1.06 1.06 0 0 1 1.5-.085 1.052 1.052 0 0 1 .085 1.489 1.041 1.041 0 0 1-.79.359 1.089 1.089 0 0 1-.715-.258zm281.244-1.125a1.065 1.065 0 0 1-.853-1.234 1.055 1.055 0 0 1 1.234-.846 1.048 1.048 0 0 1 .847 1.234v-.007a1.05 1.05 0 0 1-1.037.868 1.558 1.558 0 0 1-.191-.015zm-277.477-3.1a1.06 1.06 0 0 1-.092-1.5 1.06 1.06 0 0 1 1.5-.092 1.06 1.06 0 0 1 .092 1.5h-.006a1.032 1.032 0 0 1-.79.359 1.06 1.06 0 0 1-.702-.263zm278.416-2.491a1.051 1.051 0 0 1-.91-1.185 1.052 1.052 0 0 1 1.185-.91 1.053 1.053 0 0 1 .91 1.185 1.056 1.056 0 0 1-1.044.917.947.947 0 0 1-.139-.003zm-274.681-1.767a1.054 1.054 0 0 1-.134-1.489 1.055 1.055 0 0 1 1.5-.127 1.06 1.06 0 0 1 .127 1.489 1.061 1.061 0 0 1-.811.373 1.03 1.03 0 0 1-.682-.246zm275.319-3.852a1.05 1.05 0 0 1-.977-1.136 1.053 1.053 0 0 1 1.129-.974 1.062 1.062 0 0 1 .981 1.136 1.06 1.06 0 0 1-1.052.974h-.085zm-271.742-.536a1.056 1.056 0 0 1-.2-1.482 1.055 1.055 0 0 1 1.481-.2 1.056 1.056 0 0 1 .2 1.482 1.053 1.053 0 0 1-.847.423 1.034 1.034 0 0 1-.634-.223zm3.3-4.6a1.057 1.057 0 0 1-.318-1.46 1.052 1.052 0 0 1 1.46-.318 1.051 1.051 0 0 1 .318 1.46 1.044 1.044 0 0 1-.889.487 1.057 1.057 0 0 1-.569-.17zm268.771-.514a1.064 1.064 0 0 1-1.037-1.087 1.055 1.055 0 0 1 1.08-1.03 1.055 1.055 0 0 1 1.037 1.079 1.061 1.061 0 0 1-1.059 1.037h-.02zm-265.843-4.332a1.056 1.056 0 0 1-.459-1.426 1.072 1.072 0 0 1 1.433-.459 1.071 1.071 0 0 1 .452 1.433 1.066 1.066 0 0 1-.939.572 1 1 0 0 1-.485-.121zm264.778-2.357a1.067 1.067 0 0 1 1.023-1.093 1.067 1.067 0 0 1 1.093 1.03 1.05 1.05 0 0 1-1.022 1.086h-.035a1.059 1.059 0 0 1-1.058-1.024zm-262.351-2.758a1.057 1.057 0 0 1-.621-1.361 1.065 1.065 0 0 1 1.369-.621 1.068 1.068 0 0 1 .614 1.368 1.065 1.065 0 0 1-1 .685.97.97 0 0 1-.361-.073zm262.034-2.842a1.051 1.051 0 0 1 .965-1.136 1.057 1.057 0 0 1 1.143.967 1.062 1.062 0 0 1-.967 1.142h-.091a1.052 1.052 0 0 1-1.048-.975zm-260.27-2.533a1.058 1.058 0 0 1-.8-1.262 1.048 1.048 0 0 1 1.256-.8 1.056 1.056 0 0 1 .811 1.255 1.061 1.061 0 0 1-1.037.833 1.273 1.273 0 0 1-.228-.029zm259.662-3.041a1.052 1.052 0 0 1 .9-1.186 1.058 1.058 0 0 1 1.193.9 1.064 1.064 0 0 1-.91 1.193.9.9 0 0 1-.141.007 1.05 1.05 0 0 1-1.04-.916zm-258.746-2.54a1.067 1.067 0 0 1-1.016-1.1 1.068 1.068 0 0 1 1.1-1.016 1.054 1.054 0 0 1 1.016 1.1 1.058 1.058 0 0 1-1.059 1.016h-.042zm257.86-2.993a1.05 1.05 0 0 1 .839-1.235 1.05 1.05 0 0 1 1.235.84 1.059 1.059 0 0 1-.847 1.241 1.554 1.554 0 0 1-.191.014 1.051 1.051 0 0 1-1.036-.86zm-259.17-3.549a1.056 1.056 0 0 1 .881-1.207 1.061 1.061 0 0 1 1.214.882h-.007a1.049 1.049 0 0 1-.882 1.206 1.136 1.136 0 0 1-.162.014 1.054 1.054 0 0 1-1.044-.895zm258-1.941a1.06 1.06 0 0 1 .783-1.277 1.062 1.062 0 0 1 1.277.783 1.062 1.062 0 0 1-.783 1.277 1.02 1.02 0 0 1-.246.028 1.061 1.061 0 0 1-1.033-.811zm-259.312-3.37a1.053 1.053 0 0 1 .656-1.34 1.063 1.063 0 0 1 1.347.656 1.066 1.066 0 0 1-.663 1.347 1.135 1.135 0 0 1-.339.056 1.06 1.06 0 0 1-1.001-.719zm257.871-2.053a1.061 1.061 0 0 1 .72-1.313 1.051 1.051 0 0 1 1.313.713v.007a1.062 1.062 0 0 1-.72 1.313 1.074 1.074 0 0 1-.3.042 1.063 1.063 0 0 1-1.014-.757zm-260.043-3.005a1.058 1.058 0 0 1 .459-1.425 1.065 1.065 0 0 1 1.425.466 1.048 1.048 0 0 1-.459 1.418.988.988 0 0 1-.48.12 1.062 1.062 0 0 1-.946-.575zm258.335-2.342a1.064 1.064 0 0 1 .656-1.348 1.063 1.063 0 0 1 1.347.656 1.064 1.064 0 0 1-.656 1.348 1.207 1.207 0 0 1-.346.056 1.066 1.066 0 0 1-1.001-.712zm-261.137-2.444a1.058 1.058 0 0 1 .31-1.46 1.053 1.053 0 0 1 1.468.311 1.058 1.058 0 0 1-.311 1.46 1.023 1.023 0 0 1-.579.169 1.061 1.061 0 0 1-.888-.48zm259.175-2.808a1.058 1.058 0 0 1 .586-1.375 1.061 1.061 0 0 1 1.376.586 1.063 1.063 0 0 1-.586 1.382 1.091 1.091 0 0 1-.4.078 1.051 1.051 0 0 1-.975-.671zM96.77 183.07a1.05 1.05 0 0 1 .212-1.475 1.051 1.051 0 0 1 1.481.219 1.045 1.045 0 0 1-.219 1.475 1.037 1.037 0 0 1-.628.212 1.04 1.04 0 0 1-.846-.431zm260.157-3.37a1.053 1.053 0 0 1 .515-1.4 1.058 1.058 0 0 1 1.4.515 1.058 1.058 0 0 1-.515 1.4 1.114 1.114 0 0 1-.445.1 1.06 1.06 0 0 1-.955-.615zm-263.6-1.087v-.007a1.056 1.056 0 0 1 .177-1.482 1.047 1.047 0 0 1 1.481.17 1.055 1.055 0 0 1-.169 1.488 1.058 1.058 0 0 1-.656.226 1.061 1.061 0 0 1-.833-.39zm261.124-3.951a1.053 1.053 0 0 1 .444-1.425 1.052 1.052 0 0 1 1.426.445 1.063 1.063 0 0 1-.444 1.432 1.105 1.105 0 0 1-.488.12 1.057 1.057 0 0 1-.938-.567zm-264.644-.494a1.054 1.054 0 0 1 .176-1.481 1.054 1.054 0 0 1 1.481.176 1.047 1.047 0 0 1-.169 1.481 1.066 1.066 0 0 1-.656.233 1.061 1.061 0 0 1-.831-.404zm261.92-4.409a1.052 1.052 0 0 1 .373-1.447 1.052 1.052 0 0 1 1.447.374 1.051 1.051 0 0 1-.374 1.446 1.051 1.051 0 0 1-.536.149 1.048 1.048 0 0 1-.909-.517zm-265.385-.113a1.06 1.06 0 0 1 .225-1.482 1.06 1.06 0 0 1 1.482.226 1.06 1.06 0 0 1-.226 1.482 1.044 1.044 0 0 1-.628.2 1.053 1.053 0 0 1-.852-.421zM348.765 165a1.047 1.047 0 0 1 .3-1.46 1.056 1.056 0 0 1 1.467.3 1.051 1.051 0 0 1-.3 1.467 1.031 1.031 0 0 1-.578.176 1.041 1.041 0 0 1-.889-.483zm-265.674-.071a1.052 1.052 0 0 1 .325-1.46 1.052 1.052 0 0 1 1.46.325 1.054 1.054 0 0 1-.325 1.46 1.041 1.041 0 0 1-.564.162 1.057 1.057 0 0 1-.896-.485zm262.471-4.529a1.059 1.059 0 0 1 .225-1.482 1.058 1.058 0 0 1 1.475.226 1.059 1.059 0 0 1-.226 1.481 1.024 1.024 0 0 1-.621.2 1.045 1.045 0 0 1-.853-.425zm-265.343-.45a1.065 1.065 0 0 1 .452-1.433 1.061 1.061 0 0 1 1.426.452 1.062 1.062 0 0 1-.452 1.425 1.023 1.023 0 0 1-.487.12 1.052 1.052 0 0 1-.939-.564zm261.907-3.979a1.055 1.055 0 0 1 .148-1.489 1.055 1.055 0 0 1 1.488.148 1.055 1.055 0 0 1-.147 1.489 1.058 1.058 0 0 1-.67.24 1.065 1.065 0 0 1-.819-.388zm-264.348-1.228a1.06 1.06 0 0 1 .572-1.389 1.055 1.055 0 0 1 1.383.571 1.056 1.056 0 0 1-.572 1.383 1 1 0 0 1-.4.085 1.066 1.066 0 0 1-.983-.65zm260.686-3.02a1.06 1.06 0 0 1 .071-1.5 1.06 1.06 0 0 1 1.5.071 1.06 1.06 0 0 1-.071 1.5 1.063 1.063 0 0 1-.713.275 1.047 1.047 0 0 1-.788-.346zm-262.675-2.377a1.054 1.054 0 0 1 .677-1.334 1.06 1.06 0 0 1 1.333.685 1.063 1.063 0 0 1-.685 1.333 1.011 1.011 0 0 1-.324.05 1.048 1.048 0 0 1-1.001-.734zm258.8-1.665a1.058 1.058 0 0 1-.007-1.5 1.057 1.057 0 0 1 1.5-.014 1.052 1.052 0 0 1 .007 1.5 1.043 1.043 0 0 1-.747.317 1.043 1.043 0 0 1-.758-.303zm-260.346-3.873a1.058 1.058 0 0 1 .79-1.27 1.054 1.054 0 0 1 1.27.79 1.057 1.057 0 0 1-.79 1.27.929.929 0 0 1-.24.028 1.053 1.053 0 0 1-1.03-.818zm256.248.042a1.06 1.06 0 0 1-.092-1.5 1.06 1.06 0 0 1 1.5-.092 1.061 1.061 0 0 1 .092 1.5 1.052 1.052 0 0 1-.79.359 1.078 1.078 0 0 1-.71-.267zm-4.275-3.67a1.053 1.053 0 0 1-.135-1.488 1.054 1.054 0 0 1 1.489-.127 1.054 1.054 0 0 1 .134 1.489 1.069 1.069 0 0 1-.812.381 1.033 1.033 0 0 1-.676-.255zm-253.052-2.017a1.047 1.047 0 0 1 .889-1.2 1.064 1.064 0 0 1 1.206.888 1.059 1.059 0 0 1-.9 1.2.577.577 0 0 1-.155.014 1.054 1.054 0 0 1-1.04-.902zm248.713-1.636h-.007a1.061 1.061 0 0 1-.113-1.5 1.06 1.06 0 0 1 1.5-.113 1.061 1.061 0 0 1 .113 1.5 1.074 1.074 0 0 1-.8.367 1.042 1.042 0 0 1-.693-.255zM72.55 132.448a1.049 1.049 0 0 1 .988-1.122 1.053 1.053 0 0 1 1.121.988 1.058 1.058 0 0 1-.987 1.122H73.6a1.057 1.057 0 0 1-1.05-.988zm245.058.275a1.06 1.06 0 0 1-.042-1.5 1.064 1.064 0 0 1 1.5-.049 1.067 1.067 0 0 1 .043 1.5 1.054 1.054 0 0 1-.769.332 1.068 1.068 0 0 1-.732-.283zm-4.029-4.1a1.059 1.059 0 0 1 .078-1.5 1.06 1.06 0 0 1 1.495.085 1.06 1.06 0 0 1-.077 1.5 1.089 1.089 0 0 1-.706.268 1.046 1.046 0 0 1-.789-.352zm-240.126-.846a1.062 1.062 0 0 1-1.044-1.073 1.068 1.068 0 0 1 1.079-1.044 1.057 1.057 0 0 1 1.037 1.08 1.053 1.053 0 0 1-1.058 1.037h-.014zm236.536-3.7a1.05 1.05 0 0 1 .281-1.468 1.056 1.056 0 0 1 1.468.275 1.065 1.065 0 0 1-.282 1.475 1.072 1.072 0 0 1-.593.183 1.051 1.051 0 0 1-.874-.468zm-236.282-1.951a1.06 1.06 0 0 1-.945-1.164 1.066 1.066 0 0 1 1.164-.945 1.059 1.059 0 0 1 .939 1.164 1.062 1.062 0 0 1-1.051.953c-.037-.001-.071-.008-.107-.008zm233.432-3.154a1.063 1.063 0 0 1 .543-1.4 1.062 1.062 0 0 1 1.4.543 1.061 1.061 0 0 1-.544 1.4 1.015 1.015 0 0 1-.423.092 1.069 1.069 0 0 1-.977-.634zM74.448 116.51a1.056 1.056 0 0 1-.825-1.249 1.061 1.061 0 0 1 1.248-.826 1.065 1.065 0 0 1 .826 1.249 1.062 1.062 0 0 1-1.037.847 1.077 1.077 0 0 1-.212-.021zm86.321-3.027a1.059 1.059 0 0 1 1.009-1.108 1.052 1.052 0 0 1 1.1 1.009 1.059 1.059 0 0 1-1.009 1.108h-.042a1.057 1.057 0 0 1-1.058-1.008zm144.591-.113a1.07 1.07 0 0 1 .834-1.249 1.069 1.069 0 0 1 1.248.833 1.059 1.059 0 0 1-.833 1.242 1.074 1.074 0 0 1-.211.02 1.064 1.064 0 0 1-1.038-.845zm-149.339.8a1.062 1.062 0 0 1-.881-1.214 1.056 1.056 0 0 1 1.207-.882 1.061 1.061 0 0 1 .882 1.207 1.059 1.059 0 0 1-1.045.9 1.42 1.42 0 0 1-.163-.013zm10.365-1.32a1.051 1.051 0 0 1 .761-1.284 1.057 1.057 0 0 1 1.291.762 1.058 1.058 0 0 1-.762 1.284 1.166 1.166 0 0 1-.268.035 1.058 1.058 0 0 1-1.022-.798zm-16.03-.064a1.057 1.057 0 0 1-.67-1.334 1.051 1.051 0 0 1 1.334-.677 1.062 1.062 0 0 1 .677 1.333 1.063 1.063 0 0 1-1.008.734 1.129 1.129 0 0 1-.334-.057zm21.42-1.658a1.05 1.05 0 0 1 .522-1.4 1.044 1.044 0 0 1 1.4.522 1.054 1.054 0 0 1-.522 1.4 1.053 1.053 0 0 1-.437.092 1.049 1.049 0 0 1-.963-.614zm-96-.12a1.058 1.058 0 0 1-.677-1.334 1.062 1.062 0 0 1 1.339-.674 1.057 1.057 0 0 1 .67 1.334 1.049 1.049 0 0 1-1 .733 1.114 1.114 0 0 1-.334-.059zm69.212-.375a1.064 1.064 0 0 1-.508-1.411 1.055 1.055 0 0 1 1.4-.508 1.056 1.056 0 0 1 .507 1.411 1.052 1.052 0 0 1-.959.607 1.1 1.1 0 0 1-.441-.099zm31.812-2.109a1.059 1.059 0 0 1 .311-1.461 1.067 1.067 0 0 1 1.468.311 1.061 1.061 0 0 1-.318 1.468 1.058 1.058 0 0 1-.572.169 1.054 1.054 0 0 1-.889-.487zm128-.98a1.053 1.053 0 0 1 1.051-1.066 1.057 1.057 0 0 1 1.066 1.051 1.068 1.068 0 0 1-1.059 1.066 1.06 1.06 0 0 1-1.058-1.052zm-164.91.416a1.052 1.052 0 0 1-.388-1.446 1.046 1.046 0 0 1 1.439-.388 1.061 1.061 0 0 1 .4 1.447 1.061 1.061 0 0 1-.917.528 1.1 1.1 0 0 1-.531-.142zm-62.14-2.26a1.058 1.058 0 0 1-.5-1.411 1.056 1.056 0 0 1 1.411-.5 1.062 1.062 0 0 1 .5 1.411 1.062 1.062 0 0 1-.96.6 1 1 0 0 1-.451-.1zm103.678-.43a1.062 1.062 0 0 1 .141-1.5 1.061 1.061 0 0 1 1.489.14 1.061 1.061 0 0 1-.134 1.489 1.059 1.059 0 0 1-.677.247 1.084 1.084 0 0 1-.82-.375zm-46.41-.3a1.059 1.059 0 0 1-.325-1.46 1.061 1.061 0 0 1 1.468-.318 1.06 1.06 0 0 1 .318 1.461 1.055 1.055 0 0 1-.889.486 1 1 0 0 1-.572-.164zm171.069-2.039a1.059 1.059 0 0 1-.924-1.171 1.056 1.056 0 0 1 1.179-.924 1.05 1.05 0 0 1 .924 1.171 1.058 1.058 0 0 1-1.044.939.865.865 0 0 1-.135-.01zm-175.818-1.087a1.056 1.056 0 0 1-.289-1.467 1.056 1.056 0 0 1 1.467-.289 1.056 1.056 0 0 1 .289 1.467 1.062 1.062 0 0 1-.882.473 1.024 1.024 0 0 1-.585-.179zm55.406-.325a1.066 1.066 0 0 1-.007-1.5 1.057 1.057 0 0 1 1.5 0 1.057 1.057 0 0 1 .007 1.5 1.069 1.069 0 0 1-.755.311 1.04 1.04 0 0 1-.745-.305zm-105.251-.818a1.055 1.055 0 0 1-.274-1.468 1.056 1.056 0 0 1 1.474-.275 1.062 1.062 0 0 1 .268 1.475 1.063 1.063 0 0 1-.875.459 1.047 1.047 0 0 1-.594-.185zm45.14-1.962a1.06 1.06 0 0 1-.325-1.46 1.063 1.063 0 0 1 1.468-.325 1.058 1.058 0 0 1 .318 1.46 1.046 1.046 0 0 1-.889.487 1.05 1.05 0 0 1-.572-.156zm64.006-1.333a1.053 1.053 0 0 1-.106-1.489v-.007a1.06 1.06 0 0 1 1.5-.1 1.06 1.06 0 0 1 .1 1.5l.007-.008a1.073 1.073 0 0 1-.8.367 1.028 1.028 0 0 1-.702-.257zm117.33-.078a1.059 1.059 0 0 1-.854-1.227 1.055 1.055 0 0 1 1.227-.854 1.049 1.049 0 0 1 .854 1.228 1.056 1.056 0 0 1-1.037.867.857.857 0 0 1-.19-.008zm-223.019-1.1a1.06 1.06 0 0 1 .014-1.5 1.06 1.06 0 0 1 1.5.007 1.065 1.065 0 0 1-.007 1.5 1.069 1.069 0 0 1-.748.3 1.063 1.063 0 0 1-.759-.302zm36.878-.36a1.062 1.062 0 0 1-.409-1.44 1.056 1.056 0 0 1 1.439-.416v.006a1.054 1.054 0 0 1 .409 1.433 1.046 1.046 0 0 1-.924.55 1.12 1.12 0 0 1-.515-.127zm-4.974-2.511a1.054 1.054 0 0 1-.529-1.4 1.056 1.056 0 0 1 1.4-.536 1.058 1.058 0 0 1 .528 1.4 1.064 1.064 0 0 1-.966.621 1.051 1.051 0 0 1-.433-.08zm77.438-.268a1.072 1.072 0 0 1-.162-1.5 1.062 1.062 0 0 1 1.489-.154 1.055 1.055 0 0 1 .162 1.488 1.056 1.056 0 0 1-.826.4 1.071 1.071 0 0 1-.663-.229zm-105.046-.538a1.056 1.056 0 0 1 .353-1.451 1.062 1.062 0 0 1 1.454.353 1.056 1.056 0 0 1-.353 1.454 1.069 1.069 0 0 1-.55.155 1.04 1.04 0 0 1-.904-.511zm219.751-.783a1.066 1.066 0 0 1-.861-1.227 1.066 1.066 0 0 1 1.228-.861 1.061 1.061 0 0 1 .86 1.227 1.058 1.058 0 0 1-1.044.875 1.605 1.605 0 0 1-.182-.015zm-197.309-.4a1.068 1.068 0 0 1-.691-1.333 1.06 1.06 0 0 1 1.333-.685 1.053 1.053 0 0 1 .685 1.326 1.056 1.056 0 0 1-1.009.741.994.994 0 0 1-.317-.052zM93.222 90a1.049 1.049 0 0 1 .7-1.32 1.06 1.06 0 0 1 1.32.706 1.056 1.056 0 0 1-.713 1.32.908.908 0 0 1-.3.049A1.053 1.053 0 0 1 93.222 90zm12.057.085a1.064 1.064 0 0 1-.889-1.207A1.054 1.054 0 0 1 105.6 88v-.007a1.07 1.07 0 0 1 .888 1.214 1.059 1.059 0 0 1-1.044.9 1.261 1.261 0 0 1-.164-.019zm-6.54-1.3a1.052 1.052 0 0 1 1-1.107 1.057 1.057 0 0 1 1.115 1 1.061 1.061 0 0 1-1 1.108H99.8a1.06 1.06 0 0 1-1.061-.996zm98.012-.127a1.057 1.057 0 0 1-.169-1.488 1.055 1.055 0 0 1 1.482-.17 1.063 1.063 0 0 1 .176 1.488 1.055 1.055 0 0 1-.833.4 1.058 1.058 0 0 1-.656-.225zm112.088-2.49a1.057 1.057 0 0 1-.931-1.168 1.065 1.065 0 0 1 1.171-.931 1.057 1.057 0 0 1 .931 1.178 1.046 1.046 0 0 1-1.044.932.762.762 0 0 1-.127-.006zm-108.56-1.941a1.056 1.056 0 0 1-.148-1.488 1.049 1.049 0 0 1 1.489-.148 1.061 1.061 0 0 1 .148 1.489 1.069 1.069 0 0 1-.819.387 1.079 1.079 0 0 1-.67-.235zm107.938-4.741a1.058 1.058 0 0 1 1.044-1.073 1.057 1.057 0 0 1 1.073 1.044 1.056 1.056 0 0 1-1.044 1.072h-.015a1.059 1.059 0 0 1-1.058-1.038zm-104.3.4a1.054 1.054 0 0 1-.078-1.5 1.051 1.051 0 0 1 1.489-.078 1.06 1.06 0 0 1 .085 1.5 1.06 1.06 0 0 1-.79.346 1.027 1.027 0 0 1-.704-.261zm3.866-4.135a1.051 1.051 0 0 1 .014-1.5 1.052 1.052 0 0 1 1.5.006 1.059 1.059 0 0 1-.014 1.5v.007a1.064 1.064 0 0 1-.741.3 1.069 1.069 0 0 1-.756-.305zm99.868-1.686a1.059 1.059 0 0 1 .819-1.256 1.061 1.061 0 0 1 1.255.819 1.061 1.061 0 0 1-.818 1.255 1.212 1.212 0 0 1-.219.021 1.063 1.063 0 0 1-1.035-.831zm-95.761-2.209a1.061 1.061 0 0 1 .105-1.5 1.062 1.062 0 0 1 1.5.106 1.067 1.067 0 0 1-.105 1.5 1.063 1.063 0 0 1-.692.254 1.068 1.068 0 0 1-.806-.352zm94.082-2.949a1.052 1.052 0 0 1 .536-1.4 1.06 1.06 0 0 1 1.4.528 1.052 1.052 0 0 1-.536 1.4 1.036 1.036 0 0 1-.43.1 1.072 1.072 0 0 1-.968-.62zm-89.743-.692a1.057 1.057 0 0 1 .2-1.481 1.057 1.057 0 0 1 1.482.191 1.064 1.064 0 0 1-.191 1.488 1.056 1.056 0 0 1-.649.219 1.053 1.053 0 0 1-.84-.408zm4.551-3.365a1.064 1.064 0 0 1 .282-1.474 1.055 1.055 0 0 1 1.468.282 1.052 1.052 0 0 1-.276 1.467 1.047 1.047 0 0 1-.6.183 1.063 1.063 0 0 1-.872-.45zm82.483-.67a1.067 1.067 0 0 1 .255-1.474 1.054 1.054 0 0 1 1.474.254 1.057 1.057 0 0 1-.254 1.475 1.07 1.07 0 0 1-.607.191 1.074 1.074 0 0 1-.866-.438zm-77.743-2.427a1.065 1.065 0 0 1 .368-1.453 1.066 1.066 0 0 1 1.453.366 1.066 1.066 0 0 1-.367 1.454 1.084 1.084 0 0 1-.543.148 1.059 1.059 0 0 1-.909-.507zm74.2-1.742a1.058 1.058 0 0 1-.008-1.5 1.06 1.06 0 0 1 1.5-.007 1.052 1.052 0 0 1 .007 1.5 1.035 1.035 0 0 1-.748.311 1.054 1.054 0 0 1-.747-.296zm-69.28-1.058a1.063 1.063 0 0 1 .452-1.432v.006a1.053 1.053 0 0 1 1.425.445 1.062 1.062 0 0 1-.452 1.433 1.1 1.1 0 0 1-.487.12 1.066 1.066 0 0 1-.938-.572zm5.072-2.519a1.057 1.057 0 0 1 .537-1.4 1.068 1.068 0 0 1 1.4.536 1.054 1.054 0 0 1-.536 1.4 1.027 1.027 0 0 1-.43.092 1.06 1.06 0 0 1-.97-.627zm60.013.049a1.061 1.061 0 0 1-.248-1.475 1.063 1.063 0 0 1 1.482-.247 1.053 1.053 0 0 1 .24 1.475 1.051 1.051 0 0 1-.86.445 1.055 1.055 0 0 1-.613-.197zm-54.8-2.257a1.06 1.06 0 0 1 .614-1.362 1.062 1.062 0 0 1 1.368.621 1.056 1.056 0 0 1-.62 1.361 1.126 1.126 0 0 1-.374.064 1.063 1.063 0 0 1-.986-.683zm50.1-.586a1.059 1.059 0 0 1-.473-1.418 1.067 1.067 0 0 1 1.426-.473 1.049 1.049 0 0 1 .466 1.418 1.048 1.048 0 0 1-.946.586 1.014 1.014 0 0 1-.471-.112zm-44.765-1.305a1.067 1.067 0 0 1 .7-1.326 1.066 1.066 0 0 1 1.327.7 1.061 1.061 0 0 1-.7 1.327.99.99 0 0 1-.318.049 1.064 1.064 0 0 1-1.009-.75zm39.68-.79a1.054 1.054 0 0 1-.677-1.333 1.061 1.061 0 0 1 1.34-.677 1.064 1.064 0 0 1 .67 1.341 1.057 1.057 0 0 1-1 .726 1.063 1.063 0 0 1-.333-.057zm-34.24-.776a1.057 1.057 0 0 1 .783-1.277 1.053 1.053 0 0 1 1.277.776 1.063 1.063 0 0 1-.783 1.277.951.951 0 0 1-.248.028 1.062 1.062 0 0 1-1.029-.804zm5.531-1.234a1.056 1.056 0 0 1 .854-1.228 1.063 1.063 0 0 1 1.228.861 1.067 1.067 0 0 1-.861 1.228 1.49 1.49 0 0 1-.183.014 1.046 1.046 0 0 1-1.037-.876zm23.36.628a1.061 1.061 0 0 1-.84-1.242 1.069 1.069 0 0 1 1.242-.84 1.069 1.069 0 0 1 .84 1.242 1.064 1.064 0 0 1-1.044.861.992.992 0 0 1-.197-.021zm-17.773-1.5a1.059 1.059 0 0 1 .946-1.157 1.055 1.055 0 0 1 1.164.938 1.062 1.062 0 0 1-.946 1.164.567.567 0 0 1-.113.007 1.073 1.073 0 0 1-1.05-.949zm12.284.762v-.007a1.05 1.05 0 0 1-.974-1.136 1.053 1.053 0 0 1 1.136-.966 1.054 1.054 0 0 1 .974 1.135 1.062 1.062 0 0 1-1.059.974h-.079zm-6.639-1.2a1.068 1.068 0 0 1 1.044-1.08 1.051 1.051 0 0 1 1.072 1.037 1.053 1.053 0 0 1-1.037 1.08h-.013a1.063 1.063 0 0 1-1.065-1.032z" class="cls-1" data-name="Path 12" transform="translate(-65.352 -47.15)"/>
                </g>
                <g id="Group_9" data-name="Group 9" transform="translate(241.024 276.235)">
                    <path id="Path_13" d="M373.8 401.546a1.1 1.1 0 0 1-.4-.078 1.149 1.149 0 0 1-.346-.233 1.074 1.074 0 0 1-.31-.748 1.062 1.062 0 0 1 .31-.748 1.092 1.092 0 0 1 1.5 0 1.059 1.059 0 0 1 .31.748 1.06 1.06 0 0 1-1.059 1.059z" class="cls-1" data-name="Path 13" transform="translate(-372.739 -399.443)"/>
                </g>
            </g>
            <path id="Path_14" fill="#dce6ff" d="M72.571 348.314h262.468c-1.4-7.407-2.679-14.823-.452-21.805 4.146-13 19.146-20.276 23.126-33.331 3.547-11.633-2.78-23.863-9.808-33.787s-15.31-19.981-16.281-32.1c-.829-10.356 3.916-20.317 9.323-29.188s11.691-17.453 14.518-27.45 1.313-22.108-6.794-28.6c-9.648-7.731-23.658-4.6-35.674-1.689s-26.83 4.341-34.7-5.19c-5.04-6.1-5.362-14.751-8.655-21.945-6.572-14.36-24.75-20.725-40.217-17.537s-28.352 13.948-38.491 26.056-18.208 25.839-28.392 37.908c-8.623 10.218-21.143 19.872-34.141 16.743-11.655-2.806-19.489-15.138-31.341-16.938-8.487-1.29-17.09 3.493-22.18 10.406s-7.154 15.616-7.919 24.167a94.7 94.7 0 0 0 17.3 63.159c6.873 9.543 16.081 20.8 11.335 31.556-6.12 13.876-30.182 12.62-34.9 27.033-1.84 5.623.161 11.75 2.665 17.109a90.4 90.4 0 0 0 9.21 15.423z" data-name="Path 14" transform="translate(-59.981 -57.455)"/>
            <g id="Group_12" data-name="Group 12" transform="translate(221.917 53.778)">
                <path id="Path_15" d="M378.174 233.194c-11.617-11.185-9-30.854-17.757-44.4a15.8 15.8 0 0 0-6.19-5.931 8.216 8.216 0 0 0-8.257.432c-2.793 2.068-3.466 6.094-2.646 9.471s2.828 6.317 4.58 9.318c6.256 10.718 9.563 23.445 7.61 35.7-2.084 13.07-9.9 24.831-11.09 38.012-.824 9.105 1.623 18.292 5.729 26.461s9.812 15.423 15.819 22.316c-2.8-7.322-1.94-15.929-.2-23.574s5.158-14.811 9.089-21.594c4.3-7.426 9.319-14.642 11.446-22.956s-1.951-17.302-8.133-23.255z" class="cls-3" data-name="Path 15" transform="translate(-342.999 -130.034)"/>
                <path id="Path_16" d="M378.174 233.194c-11.617-11.185-9-30.854-17.757-44.4a15.8 15.8 0 0 0-6.19-5.931 8.216 8.216 0 0 0-8.257.432c-2.793 2.068-3.466 6.094-2.646 9.471s2.828 6.317 4.58 9.318c6.256 10.718 9.563 23.445 7.61 35.7-2.084 13.07-9.9 24.831-11.09 38.012-.824 9.105 1.623 18.292 5.729 26.461s9.812 15.423 15.819 22.316c-2.8-7.322-1.94-15.929-.2-23.574s5.158-14.811 9.089-21.594c4.3-7.426 9.319-14.642 11.446-22.956s-1.951-17.302-8.133-23.255z" class="cls-4" data-name="Path 16" transform="translate(-342.999 -130.034)"/>
                <path id="Path_17" d="M370.631 229.829c-.568 9.772-5.305 19.388-10.589 27.888-5.408 8.7-11.6 17.262-15.071 26.778-.071.545-.149 1.089-.2 1.639-.824 9.105 1.623 18.292 5.729 26.461s9.812 15.423 15.819 22.316c-2.8-7.322-1.94-15.929-.2-23.574s5.158-14.811 9.089-21.594c4.3-7.426 9.319-14.642 11.446-22.956s-1.949-17.306-8.131-23.259c-3.929-3.784-6.223-8.54-7.892-13.699z" class="cls-4" data-name="Path 17" transform="translate(-343.348 -140.368)"/>
                <g id="Group_11" data-name="Group 11" transform="translate(6.342)">
                    <path id="Path_18" d="M384.131 308.813A234.772 234.772 0 0 1 382 251.9c.894-10.566 2.675-21.511 8.806-30.161 4.521-6.379 11.2-11.186 14.753-18.15 6.263-12.278 1.338-28.194 8.162-40.17 2.456-4.309 7.244-8.017 12.051-6.8 4.932 1.254 7.326 7.019 7.376 12.107.144 14.554-12.233 26.378-14.716 40.72-2.479 14.324 5.217 28.331 6.763 42.786 1.325 12.4-1.967 24.956-7.445 36.157s-13.069 21.22-20.824 30.986c-6.093-.981-11.816-4.464-12.795-10.562z" class="cls-3" data-name="Path 18" transform="translate(-357.583 -124.512)"/>
                    <path id="Path_19" d="M384.131 308.813A234.772 234.772 0 0 1 382 251.9c.894-10.566 2.675-21.511 8.806-30.161 4.521-6.379 11.2-11.186 14.753-18.15 6.263-12.278 1.338-28.194 8.162-40.17 2.456-4.309 7.244-8.017 12.051-6.8 4.932 1.254 7.326 7.019 7.376 12.107.144 14.554-12.233 26.378-14.716 40.72-2.479 14.324 5.217 28.331 6.763 42.786 1.325 12.4-1.967 24.956-7.445 36.157s-13.069 21.22-20.824 30.986c-6.093-.981-11.816-4.464-12.795-10.562z" class="cls-4" data-name="Path 19" transform="translate(-357.583 -124.512)"/>
                    <path id="Path_20" d="M404.976 217.954c-3.663 6.4-9.881 11.032-14.165 17.076-6.131 8.65-7.912 19.6-8.806 30.161a234.793 234.793 0 0 0 .707 46.582 146.929 146.929 0 0 0 9.11 19.4 20.822 20.822 0 0 0 5.108 1.5c2.246-2.829 4.477-5.68 6.648-8.574 7.273-13.095 13.038-26.989 14.606-41.79 2.332-22.022-4.802-43.679-13.208-64.355z" class="cls-4" data-name="Path 20" transform="translate(-357.583 -137.804)"/>
                    <path id="Path_21" fill="url(#linear-gradient-3)" d="M368.772 309.666c-12.3-4.908-18.386-19.517-17.62-32.738s6.874-25.454 12.7-37.35 11.592-24.377 11.6-37.62c.01-14.9-7.284-28.886-8.774-43.712a57.1 57.1 0 0 1 6.89-33.272c2.224-3.988 5.326-7.981 9.776-9 6.485-1.49 12.8 4.345 14.392 10.807s-.21 13.215-1.892 19.653c-2.985 11.424-5.653 23.182-4.556 34.938 1.268 13.571 7.444 26.128 11.181 39.236a112.736 112.736 0 0 1-15.746 94.027c-6.183-1.477-12.049-2.615-17.951-4.969z" data-name="Path 21" transform="translate(-351.088 -115.735)"/>
                    <path id="Path_22" d="M406.731 238.826a1.409 1.409 0 0 0-1.869.7 54.5 54.5 0 0 1-12.552 17.33c.317-1.269.615-2.544.865-3.829 2.907-14.95.754-30.07-1.737-42.889q-.309-1.595-.637-3.2a84.744 84.744 0 0 0 5.384-10.031 1.411 1.411 0 0 0-2.572-1.163c-1.1 2.426-2.326 4.807-3.659 7.122-.319-1.509-.639-3.012-.957-4.492-2.1-9.8-4.273-19.934-5.123-30.035a93.218 93.218 0 0 1-.015-16.339c4.283-3.83 8.445-7.887 12.369-12.076a1.411 1.411 0 0 0-2.059-1.93c-3.131 3.341-6.416 6.6-9.793 9.718a57.433 57.433 0 0 1 6.618-19.928 1.411 1.411 0 0 0-2.455-1.392c-5.783 10.2-8.378 22.843-7.756 37.614a63.4 63.4 0 0 0-7.359-7.767 1.411 1.411 0 1 0-1.876 2.108 60.548 60.548 0 0 1 9.559 10.81.134.134 0 0 0 .014.016c.9 10.08 3.038 20.1 5.116 29.8.822 3.835 1.672 7.8 2.431 11.707a143.894 143.894 0 0 1 3.069 26.6 71.182 71.182 0 0 0-11.074-16.234 1.411 1.411 0 1 0-2.089 1.9 68.412 68.412 0 0 1 12.874 20.554 1.452 1.452 0 0 0 .092.155 72.489 72.489 0 0 1-1.135 8.835 80.6 80.6 0 0 1-1.977 7.847 1.43 1.43 0 0 0-.125.432c-1.4 4.582-3.109 9.089-4.784 13.5-.922 2.433-1.869 4.942-2.762 7.441a159.4 159.4 0 0 1-11.838-28.625 1.411 1.411 0 0 0-2.7.819 162.087 162.087 0 0 0 13.288 31.433c-2.73 8.279-5.175 18.476-3.62 28.616a1.411 1.411 0 1 0 2.789-.427c-1.655-10.8 1.552-21.861 4.531-30.292.94-2.66 1.963-5.357 2.952-7.965 1.676-4.418 3.386-8.93 4.8-13.543a57.3 57.3 0 0 0 16.47-21.029 1.411 1.411 0 0 0-.698-1.871z" class="cls-6" data-name="Path 22" transform="translate(-354.341 -117.882)"/>
                </g>
                <path id="Path_23" d="M398.048 362.135c-6.111.34-12.339.952-18.5 1.233-6.165-.281-12.393-.894-18.5-1.233a72.99 72.99 0 0 0 10.578 43.758h15.844a73 73 0 0 0 10.578-43.758z" class="cls-7" data-name="Path 23" transform="translate(-346.847 -168.932)"/>
                <path id="Path_24" d="M398.048 362.135c-6.111.34-12.339.952-18.5 1.233-6.165-.281-12.393-.894-18.5-1.233a71.779 71.779 0 0 0 .277 14.019l36.932-9.921q-.049-2.051-.209-4.098z" class="cls-6" data-name="Path 24" transform="translate(-346.847 -168.932)"/>
                <path id="Rectangle_10" d="M0 0H43.551V7.53H0z" class="cls-7" data-name="Rectangle 10" transform="translate(10.922 188.947)"/>
                <path id="Rectangle_11" d="M0 0H43.551V7.53H0z" class="cls-8" data-name="Rectangle 11" transform="translate(10.922 188.947)"/>
            </g>
            <g id="Group_28" data-name="Group 28" transform="translate(58.855 56.704)">
                <rect id="Rectangle_12" width="181.038" height="234.155" class="cls-1" data-name="Rectangle 12" rx="18.024"/>
                <g id="Group_13" class="cls-9" data-name="Group 13">
                    <path id="Path_25" d="M317.571 190.262L141.949 365.884a14.06 14.06 0 0 0 8.716 3.023h23.729l143.177-143.178z" class="cls-10" data-name="Path 25" transform="translate(-136.532 -134.751)"/>
                    <path id="Path_26" d="M135.041 338.618l181.038-181.039V133.6a14.132 14.132 0 0 0-14.132-14.133h-18.69L135.041 267.683z" class="cls-10" data-name="Path 26" transform="translate(-135.041 -119.467)"/>
                </g>
                <path id="Path_27" d="M302.918 123.966h-37.335v4.071a4.765 4.765 0 0 1-4.76 4.76H192.24a4.765 4.765 0 0 1-4.76-4.76v-4.071h-37.335a10.617 10.617 0 0 0-10.605 10.605v205.89a10.616 10.616 0 0 0 10.605 10.6h152.773a10.616 10.616 0 0 0 10.605-10.6v-205.89a10.617 10.617 0 0 0-10.605-10.605z" class="cls-10" data-name="Path 27" transform="translate(-136.012 -120.438)"/>
                <path id="Path_28" d="M251.766 127.159A1.769 1.769 0 1 1 250 125.39a1.769 1.769 0 0 1 1.766 1.769z" class="cls-4" data-name="Path 28" transform="translate(-159.477 -120.746)"/>
                <path id="Path_29" d="M229.094 127.159a1.769 1.769 0 1 1-1.769-1.769 1.769 1.769 0 0 1 1.769 1.769z" class="cls-4" data-name="Path 29" transform="translate(-154.583 -120.746)"/>
                <path id="Path_30" d="M274.437 127.159a1.769 1.769 0 1 1-1.769-1.769 1.769 1.769 0 0 1 1.769 1.769z" class="cls-4" data-name="Path 30" transform="translate(-164.372 -120.746)"/>
                <g id="Group_16" data-name="Group 16" transform="translate(12.59 32.425)">
                    <g id="Group_14" class="cls-9" data-name="Group 14">
                        <path id="Path_31" d="M172.5 191.344h-12.284a9.128 9.128 0 0 1-9.118-9.118v-12.288a9.129 9.129 0 0 1 9.118-9.118H172.5a9.128 9.128 0 0 1 9.118 9.118v12.287a9.128 9.128 0 0 1-9.118 9.119zm-12.284-24.174a2.772 2.772 0 0 0-2.769 2.769v12.287a2.772 2.772 0 0 0 2.769 2.769H172.5a2.772 2.772 0 0 0 2.769-2.769v-12.288a2.772 2.772 0 0 0-2.769-2.769z" data-name="Path 31" transform="translate(-151.098 -160.82)"/>
                    </g>
                    <g id="Group_15" data-name="Group 15" transform="translate(37.277 1.537)">
                        <path id="Path_32" d="M309.491 168.349H201.74a2.785 2.785 0 0 1-2.785-2.784 2.785 2.785 0 0 1 2.785-2.784h107.751a2.785 2.785 0 0 1 2.785 2.784 2.785 2.785 0 0 1-2.785 2.784z" class="cls-6" data-name="Path 32" transform="translate(-198.707 -162.78)"/>
                        <rect id="Rectangle_13" width="113.321" height="5.569" class="cls-6" data-name="Rectangle 13" rx="2.785" transform="translate(0 11.138)"/>
                        <path id="Path_33" d="M253.975 196.76H201.74a2.785 2.785 0 0 1-2.785-2.784 2.785 2.785 0 0 1 2.785-2.785h52.235a2.785 2.785 0 0 1 2.784 2.785 2.785 2.785 0 0 1-2.784 2.784z" class="cls-6" data-name="Path 33" transform="translate(-198.707 -168.914)"/>
                    </g>
                </g>
                <g id="Group_19" data-name="Group 19" transform="translate(12.59 77.542)">
                    <g id="Group_17" class="cls-9" data-name="Group 17">
                        <path id="Path_34" d="M172.5 248.883h-12.284a9.129 9.129 0 0 1-9.118-9.119v-12.286a9.129 9.129 0 0 1 9.118-9.119H172.5a9.129 9.129 0 0 1 9.118 9.119v12.286a9.129 9.129 0 0 1-9.118 9.119zm-12.287-24.175a2.772 2.772 0 0 0-2.769 2.769v12.286a2.772 2.772 0 0 0 2.769 2.769H172.5a2.772 2.772 0 0 0 2.769-2.769v-12.285a2.772 2.772 0 0 0-2.769-2.769z" data-name="Path 34" transform="translate(-151.098 -218.359)"/>
                    </g>
                    <g id="Group_18" data-name="Group 18" transform="translate(37.276 1.537)">
                        <path id="Path_35" d="M309.491 225.889H201.74a2.785 2.785 0 0 1-2.785-2.785 2.785 2.785 0 0 1 2.785-2.784h107.751a2.785 2.785 0 0 1 2.785 2.784 2.785 2.785 0 0 1-2.785 2.785z" class="cls-6" data-name="Path 35" transform="translate(-198.706 -220.319)"/>
                        <path id="Path_36" d="M309.175 240.094H201.423a2.785 2.785 0 0 1-2.785-2.784 2.785 2.785 0 0 1 2.785-2.785h107.752a2.785 2.785 0 0 1 2.784 2.785 2.785 2.785 0 0 1-2.784 2.784z" class="cls-6" data-name="Path 36" transform="translate(-198.638 -223.386)"/>
                        <rect id="Rectangle_14" width="57.804" height="5.569" class="cls-6" data-name="Rectangle 14" rx="2.785" transform="translate(.249 22.277)"/>
                    </g>
                </g>
                <g id="Group_22" data-name="Group 22" transform="translate(12.59 122.659)">
                    <g id="Group_20" class="cls-9" data-name="Group 20">
                        <path id="Path_37" d="M172.5 306.423h-12.284a9.129 9.129 0 0 1-9.116-9.123v-12.283a9.129 9.129 0 0 1 9.118-9.118H172.5a9.128 9.128 0 0 1 9.118 9.118V297.3a9.128 9.128 0 0 1-9.118 9.123zm-12.287-24.174a2.772 2.772 0 0 0-2.769 2.769V297.3a2.772 2.772 0 0 0 2.769 2.769H172.5a2.772 2.772 0 0 0 2.769-2.769v-12.283a2.772 2.772 0 0 0-2.769-2.769z" data-name="Path 37" transform="translate(-151.098 -275.899)"/>
                    </g>
                    <g id="Group_21" data-name="Group 21" transform="translate(37.276 1.536)">
                        <path id="Path_38" d="M309.491 283.428H201.74a2.785 2.785 0 0 1-2.785-2.784 2.785 2.785 0 0 1 2.785-2.785h107.751a2.785 2.785 0 0 1 2.785 2.785 2.785 2.785 0 0 1-2.785 2.784z" class="cls-6" data-name="Path 38" transform="translate(-198.706 -277.858)"/>
                        <path id="Path_39" d="M309.175 297.633H201.423a2.785 2.785 0 0 1-2.785-2.785 2.785 2.785 0 0 1 2.785-2.784h107.752a2.785 2.785 0 0 1 2.784 2.784 2.785 2.785 0 0 1-2.784 2.785z" class="cls-6" data-name="Path 39" transform="translate(-198.638 -280.925)"/>
                        <path id="Path_40" d="M253.975 311.839H201.74a2.785 2.785 0 0 1-2.785-2.784 2.785 2.785 0 0 1 2.785-2.785h52.235a2.785 2.785 0 0 1 2.784 2.785 2.785 2.785 0 0 1-2.784 2.784z" class="cls-6" data-name="Path 40" transform="translate(-198.706 -283.992)"/>
                    </g>
                </g>
                <g id="Group_25" data-name="Group 25" transform="translate(12.59 167.776)">
                    <g id="Group_23" class="cls-9" data-name="Group 23">
                        <path id="Path_41" d="M172.5 363.962h-12.284a9.129 9.129 0 0 1-9.118-9.119v-12.286a9.129 9.129 0 0 1 9.118-9.119H172.5a9.129 9.129 0 0 1 9.118 9.119v12.286a9.129 9.129 0 0 1-9.118 9.119zm-12.287-24.175a2.772 2.772 0 0 0-2.769 2.769v12.286a2.773 2.773 0 0 0 2.769 2.769H172.5a2.773 2.773 0 0 0 2.769-2.769v-12.285a2.772 2.772 0 0 0-2.769-2.769z" data-name="Path 41" transform="translate(-151.098 -333.438)"/>
                    </g>
                    <g id="Group_24" data-name="Group 24" transform="translate(37.277 1.537)">
                        <path id="Path_42" d="M309.491 340.968H201.74a2.785 2.785 0 0 1-2.785-2.785 2.785 2.785 0 0 1 2.785-2.784h107.751a2.785 2.785 0 0 1 2.785 2.784 2.785 2.785 0 0 1-2.785 2.785z" class="cls-6" data-name="Path 42" transform="translate(-198.707 -335.398)"/>
                        <rect id="Rectangle_15" width="113.321" height="5.569" class="cls-6" data-name="Rectangle 15" rx="2.785" transform="translate(0 11.139)"/>
                        <rect id="Rectangle_16" width="57.804" height="5.569" class="cls-6" data-name="Rectangle 16" rx="2.785" transform="translate(.248 22.277)"/>
                    </g>
                </g>
                <g id="Group_26" data-name="Group 26" transform="translate(13.769 8.182)">
                    <circle id="Ellipse_6" cx="1.72" cy="1.72" r="1.72" class="cls-11" data-name="Ellipse 6"/>
                    <circle id="Ellipse_7" cx="1.72" cy="1.72" r="1.72" class="cls-11" data-name="Ellipse 7" transform="translate(6.182)"/>
                    <circle id="Ellipse_8" cx="1.72" cy="1.72" r="1.72" class="cls-11" data-name="Ellipse 8" transform="translate(12.363)"/>
                    <circle id="Ellipse_9" cx="1.72" cy="1.72" r="1.72" class="cls-11" data-name="Ellipse 9" transform="translate(18.545)"/>
                    <circle id="Ellipse_10" cx="1.72" cy="1.72" r="1.72" class="cls-11" data-name="Ellipse 10" transform="translate(24.726)"/>
                </g>
                <g id="Group_27" data-name="Group 27" transform="translate(135.461 6.977)">
                    <path id="Rectangle_17" d="M0 0H10.043V5.551H0z" class="cls-11" data-name="Rectangle 17"/>
                    <path id="Rectangle_18" d="M0 0H1.401V2.993H0z" class="cls-11" data-name="Rectangle 18" transform="rotate(180 5.722 2.136)"/>
                </g>
                <text id="_100_" fill="#ff58d5" data-name="100%" font-family="Montserrat-Medium, Montserrat" font-size="5px" font-weight="500" transform="translate(152.093 11.133)">
                    <tspan x="0" y="0">100%</tspan>
                </text>
                <path id="Path_43" d="M188.815 209.131c-7.04 6.4-14.353 13.613-20.771 20.631a54.757 54.757 0 0 1-5.46-8.449l-8.441 2.106a83.748 83.748 0 0 0 14.288 14.395c6.812-9.214 13.569-19.471 20.384-28.683z" class="cls-13" data-name="Path 43" transform="translate(-139.165 -138.825)"/>
                <path id="Path_44" d="M188.815 266.671c-7.04 6.394-14.353 13.612-20.771 20.631a54.766 54.766 0 0 1-5.46-8.45l-8.441 2.107a83.748 83.748 0 0 0 14.288 14.395c6.812-9.211 13.569-19.471 20.384-28.683z" class="cls-13" data-name="Path 44" transform="translate(-139.165 -151.247)"/>
                <path id="Path_45" d="M188.815 324.21c-7.04 6.4-14.353 13.613-20.771 20.631a54.762 54.762 0 0 1-5.46-8.449l-8.441 2.106a83.747 83.747 0 0 0 14.288 14.395c6.812-9.211 13.569-19.471 20.384-28.683z" class="cls-13" data-name="Path 45" transform="translate(-139.165 -163.67)"/>
            </g>
            <path id="Path_46" d="M180.993 132.1c-4.8 8.213-9.608 17.292-13.624 25.913a54.854 54.854 0 0 1-7.744-6.421l-7.42 4.542a83.782 83.782 0 0 0 17.949 9.445c3.735-10.837 7.104-22.652 10.839-33.479z" class="cls-13" data-name="Path 46" transform="translate(-79.891 -65.489)"/>
            <g id="Group_31" data-name="Group 31" transform="translate(9.256 90.666)">
                <path id="Path_47" d="M78.4 402.392l3.23-7.692 6.129 3.569-5.1 6.605z" class="cls-11" data-name="Path 47" transform="translate(-73.214 -212.85)"/>
                <path id="Path_48" d="M125.047 408.418l-1.513-9.678h9.939l-1.513 9.678z" class="cls-11" data-name="Path 48" transform="translate(-82.958 -213.722)"/>
                <path id="Path_49" d="M78.346 289.521c.95 2.666 1.9 5.616.877 8.254.746 1.405-.236 3.613-1.513 4.563a3.477 3.477 0 0 1-4.371-.306A5.429 5.429 0 0 1 72 298.669a13.453 13.453 0 0 1 2.588-9.354c-.033-.833.407-1.767 1.24-1.814s2.238 1.233 2.518 2.02z" class="cls-11" data-name="Path 49" transform="translate(-71.817 -189.706)"/>
                <path id="Path_50" d="M109.5 195.374a6.24 6.24 0 0 1-.174-6.165 14.487 14.487 0 0 1 4.249-4.8 40.284 40.284 0 0 0 4.929-4.174 14.086 14.086 0 0 0 3.522-10.865 7.3 7.3 0 0 0-2.466-5.111c-2.418-1.839-6.078-.972-8.327 1.07s-3.458 4.954-4.714 7.72-2.74 5.613-5.294 7.26c-1.571 1.013-3.438 1.493-5.011 2.5a8.95 8.95 0 0 0-3.414 10.427 5.179 5.179 0 0 0-.953 5.566A8.548 8.548 0 0 0 96 202.894a13.216 13.216 0 0 0 10.977.364 5.319 5.319 0 0 1 1.116-5.588c.686-.584 1.476-1.398 1.407-2.296z" class="cls-13" data-name="Path 50" transform="translate(-76.028 -162.881)"/>
                <path id="Path_51" d="M158.6 172.267a3.852 3.852 0 0 1 .953-5.018c-.376-1.827.95-4.2 2.8-4.445a2.636 2.636 0 0 1 2.875 1.595 3.672 3.672 0 0 1-.124 2.055 17.291 17.291 0 0 1-4.321 7.464 7.142 7.142 0 0 1-2.183-1.651z" class="cls-11" data-name="Path 51" transform="translate(-90.411 -162.78)"/>
                <path id="Path_52" d="M79.675 277.641a58.9 58.9 0 0 1 17.33-34.4c2.447-2.363 5.106-4.518 7.331-7.091a16.591 16.591 0 0 0 4.341-9.053 7.65 7.65 0 0 0-1.017-4.9 4.61 4.61 0 0 0-4.317-2.165c-5.215.737-9.6 4.6-12.994 8.63a69.469 69.469 0 0 0-16.14 45.717 11.355 11.355 0 0 0 5.466 3.262z" class="cls-7" data-name="Path 52" transform="translate(-72.305 -175.132)"/>
                <path id="Path_53" d="M79.675 277.641a58.9 58.9 0 0 1 17.33-34.4c2.447-2.363 5.106-4.518 7.331-7.091a16.591 16.591 0 0 0 4.341-9.053 7.65 7.65 0 0 0-1.017-4.9 4.61 4.61 0 0 0-4.317-2.165c-5.215.737-9.6 4.6-12.994 8.63a69.469 69.469 0 0 0-16.14 45.717 11.355 11.355 0 0 0 5.466 3.262z" class="cls-4" data-name="Path 53" transform="translate(-72.305 -175.132)"/>
                <path id="Path_54" d="M114.755 312.98a103.4 103.4 0 0 1-25.618 60.366 15.174 15.174 0 0 1-6.042-4.026c2.514-13.71 12.456-25.638 13.55-39.533.583-7.4-1.355-14.738-2.285-22.1s-3.093-18.435 1.245-24.46c6.47 3.387 14.354 11.461 18.114 17.721a19.724 19.724 0 0 1 2.726 6.679c.413 2.373-1.507 2.942-1.69 5.353z" class="cls-14" data-name="Path 54" transform="translate(-74.227 -188.782)"/>
                <path id="Path_55" d="M114.755 312.98a103.4 103.4 0 0 1-25.618 60.366 15.174 15.174 0 0 1-6.042-4.026c2.514-13.71 12.456-25.638 13.55-39.533.583-7.4-1.355-14.738-2.285-22.1s-3.093-18.435 1.245-24.46c6.47 3.387 14.354 11.461 18.114 17.721a19.724 19.724 0 0 1 2.726 6.679c.413 2.373-1.507 2.942-1.69 5.353z" class="cls-8" data-name="Path 55" transform="translate(-74.227 -188.782)"/>
                <path id="Path_56" d="M119.171 307.689a19.724 19.724 0 0 0-2.726-6.679c-3.677-6.121-11.291-13.964-17.677-17.476-.3.135-.59.276-.875.421-3.477 5.7-1.97 15.194-1.017 22.209q.306.553.623 1.1c3.564 6.1 8.123 11.608 11.311 17.913a31.333 31.333 0 0 1 3.572 12.779 102.091 102.091 0 0 0 5.1-24.9c.182-2.419 2.102-2.984 1.689-5.367z" class="cls-4" data-name="Path 56" transform="translate(-76.952 -188.85)"/>
                <path id="Path_57" d="M121.827 282.755a278.094 278.094 0 0 1 6.746 92.967H118.4c-2.827-11.371-5.388-23.94-5.276-35.657.07-7.254 1.261-14.653-.581-21.67-1.64-6.249-5.54-11.611-8.778-17.2s-5.932-12-4.79-18.359a48.343 48.343 0 0 1 22.852-.081z" class="cls-14" data-name="Path 57" transform="translate(-77.598 -188.394)"/>
                <path id="Path_58" d="M112.057 281.468c3.351 1.553 7.129 3.091 10.634 4.968-.285-1.228-.563-2.457-.864-3.681a48.343 48.343 0 0 0-22.851.078c-1.142 6.359 1.553 12.768 4.79 18.359s7.138 10.953 8.778 17.2c1.842 7.016.651 14.416.581 21.67-.111 11.717 2.449 24.285 5.276 35.657h4.743a206.8 206.8 0 0 0-11.087-94.251z" class="cls-4" data-name="Path 58" transform="translate(-77.598 -188.394)"/>
                <path id="Path_59" d="M122.444 288.246c-.135-.6-.26-1.207-.4-1.807-.122-.524-.247-1.046-.369-1.57-2.38-.722-4.233-1.841-7.1-2.535a35.615 35.615 0 0 0-5.171-.9 49.219 49.219 0 0 0-6.742.552 14.92 14.92 0 0 0-5.564 3.108c-.094.226-.2.446-.278.679l-.02.055q-.2.582-.365 1.2l-.024.093c-.105.409-.2.826-.277 1.251l-.012.065a26.722 26.722 0 0 0-.4 4.153v.092c-.01.457-.011.917 0 1.38v.126q.012.7.045 1.395v.083c.047.962.12 1.927.211 2.886l.007.081q.066.687.143 1.367l.019.171q.074.656.155 1.3l.026.2q.079.632.162 1.251l.032.238.1.748a41.105 41.105 0 0 0 25.822-15.662z" class="cls-4" data-name="Path 59" transform="translate(-76.953 -188.396)"/>
                <path id="Path_60" d="M92.866 280.418c8.68 2.523 21.311-4.629 29.8-7.725-.677-8.98-2.7-18.38-3.381-27.361-.734-9.721-1.718-20.1-7.846-27.684-2.486-3.077-8.17-1.31-11.156 1.284s-4.631 6.39-5.853 10.153c-4.776 14.724-5.714 36.415-1.564 51.333z" class="cls-7" data-name="Path 60" transform="translate(-75.769 -174.274)"/>
                <path id="Path_61" d="M121.576 246.561c-.646-8.562-1.491-17.632-5.868-24.855a21.047 21.047 0 0 0-5.273 2.2c-3.362 1.929-6.161 5.014-9.6 6.8a75.492 75.492 0 0 0 20.78 16.269c-.015-.133-.028-.275-.039-.414z" class="cls-4" data-name="Path 61" transform="translate(-78.057 -175.501)"/>
                <path id="Path_62" d="M107.807 203.645a76.974 76.974 0 0 0-1.165 12.088c1.981.541 4.117 1.286 6.132.888a66.434 66.434 0 0 0 .579-12.537 12.147 12.147 0 0 0-5.546-.439z" class="cls-11" data-name="Path 62" transform="translate(-79.311 -171.574)"/>
                <path id="Path_63" d="M107.006 210.427a23.178 23.178 0 0 0 6.207 3.172 67.561 67.561 0 0 0 .247-8.749 5.539 5.539 0 0 0-.774-.943c-.02-.019-.044-.033-.064-.053a12.447 12.447 0 0 0-4.736-.209c-.398 2.246-.686 4.511-.88 6.782z" class="cls-4" data-name="Path 63" transform="translate(-79.389 -171.575)"/>
                <path id="Path_64" d="M106.362 193.572a21.212 21.212 0 0 1 9.779 11.394 8.284 8.284 0 0 1-4.871 3.924 9.965 9.965 0 0 1-8.911-1.451 8.227 8.227 0 0 1-3.007-8.332c.792-3.026 4.259-7.023 7.01-5.535z" class="cls-11" data-name="Path 64" transform="translate(-77.687 -169.358)"/>
                <path id="Path_65" d="M149.627 174.867c-2.428 9.3-5.383 18.528-9.989 26.959s-10.96 16.077-19.14 21.118a21.841 21.841 0 0 1-8.278 3.311 10.965 10.965 0 0 1-8.472-2.077c-2.307-1.907-5.064-6.2-3.334-8.641 2.166-3.059 6.017-4.3 9.5-5.682a62.906 62.906 0 0 0 35.475-36.567z" class="cls-7" data-name="Path 65" transform="translate(-77.849 -165.049)"/>
                <path id="Path_66" d="M110.352 194.18a1.557 1.557 0 0 1-.376 1.207 3.781 3.781 0 0 1-1.015.808 14.079 14.079 0 0 1-6.631 1.992 4.967 4.967 0 0 1 .632 4.037c.744.6 1.3 1.367 2.043 1.963a14.331 14.331 0 0 0-2.337-.923 1.3 1.3 0 0 0-1.3.019.886.886 0 0 0-.2.937 2.019 2.019 0 0 0 .594.811 5.939 5.939 0 0 0 2.639 1.394 6.658 6.658 0 0 1 .054 2.942c-2.7-.659-6.016-1.933-7.433-4.327a9.254 9.254 0 0 1-.826-5.484 14.312 14.312 0 0 1 2.4-7.605c1.629-2.147 4.568-3.485 7.1-2.566 2.004.724 4.304 2.699 4.656 4.795z" class="cls-13" data-name="Path 66" transform="translate(-77.042 -168.46)"/>
                <g id="Group_29" data-name="Group 29" transform="translate(38.836 185.018)">
                    <rect id="Rectangle_19" width="13.419" height="4.62" class="cls-14" data-name="Rectangle 19" rx="2.219"/>
                    <rect id="Rectangle_20" width="13.419" height="4.62" class="cls-15" data-name="Rectangle 20" rx="2.219"/>
                </g>
                <g id="Group_30" data-name="Group 30" transform="translate(5.106 177.302)">
                    <rect id="Rectangle_21" width="13.419" height="4.62" class="cls-14" data-name="Rectangle 21" rx="2.219" transform="rotate(30.636 1.177 4.297)"/>
                    <rect id="Rectangle_22" width="13.419" height="4.62" class="cls-15" data-name="Rectangle 22" rx="2.219" transform="rotate(30.636 1.177 4.297)"/>
                </g>
                <path id="Path_67" d="M124.568 411.083l-3.253 5.5h20.519l-10.354-5.5z" class="cls-14" data-name="Path 67" transform="translate(-82.479 -216.387)"/>
                <path id="Path_68" d="M83.738 410.832l-2.5-3.839-4.262-2.482-5.19 2.415 9.882 5.754.951.692 6.074.612z" class="cls-14" data-name="Path 68" transform="translate(-71.785 -214.968)"/>
            </g>
            <path id="Path_69" d="M273.716 406.482H207.95a2.167 2.167 0 0 1-2.167-2.168 2.167 2.167 0 0 1 2.167-2.167h65.765a2.168 2.168 0 0 1 2.168 2.167 2.168 2.168 0 0 1-2.167 2.168z" class="cls-4" data-name="Path 69" transform="translate(-91.458 -123.792)"/>
        </g>
        <g id="Group_33" data-name="Group 33" opacity="0.2" transform="translate(49.089 47.482)">
            <circle id="Ellipse_11" cx="2.885" cy="2.885" r="2.885" data-name="Ellipse 11" transform="translate(295.987 56.372)"/>
            <path id="Path_70" d="M207.254 78.185a2.476 2.476 0 1 1-2.476-2.476 2.476 2.476 0 0 1 2.476 2.476z" data-name="Path 70" transform="translate(-82.167 -53.648)"/>
            <path id="Path_71" d="M111.063 65.555a1.606 1.606 0 1 1-1.607-1.606 1.606 1.606 0 0 1 1.607 1.606z" data-name="Path 71" transform="translate(-61.775 -51.109)"/>
            <path id="Path_72" d="M108.714 137.2a1.752 1.752 0 1 1-1.752-1.752 1.752 1.752 0 0 1 1.752 1.752z" data-name="Path 72" transform="translate(-61.205 -66.545)"/>
            <path id="Path_73" d="M55.948 183.713a3.429 3.429 0 1 1-3.429-3.429 3.429 3.429 0 0 1 3.429 3.429z" data-name="Path 73" transform="translate(-49.089 -76.225)"/>
            <path id="Path_74" d="M320.514 78.224a1.793 1.793 0 1 1-1.792-1.793 1.793 1.793 0 0 1 1.792 1.793z" data-name="Path 74" transform="translate(-106.914 -53.804)"/>
            <path id="Path_75" d="M393.927 80.3a4.535 4.535 0 0 0 2.927 2.927 4.535 4.535 0 0 0-2.927 2.927A4.535 4.535 0 0 0 391 83.226a4.535 4.535 0 0 0 2.927-2.927z" data-name="Path 75" transform="translate(-122.905 -54.639)"/>
            <path id="Path_76" d="M444.437 382.682a4.536 4.536 0 0 0 2.926 2.926 4.537 4.537 0 0 0-2.926 2.927 4.54 4.54 0 0 0-2.927-2.927 4.539 4.539 0 0 0 2.927-2.926z" data-name="Path 76" transform="translate(-133.81 -119.922)"/>
            <path id="Path_77" d="M456.026 210.553a4.537 4.537 0 0 0 2.927 2.926 4.539 4.539 0 0 0-2.927 2.927 4.537 4.537 0 0 0-2.926-2.927 4.536 4.536 0 0 0 2.926-2.926z" data-name="Path 77" transform="translate(-136.312 -82.76)"/>
            <path id="Path_78" d="M350.282 100.338a4.536 4.536 0 0 0 2.926 2.926 4.539 4.539 0 0 0-2.926 2.927 4.542 4.542 0 0 0-2.927-2.927 4.539 4.539 0 0 0 2.927-2.926z" data-name="Path 78" transform="translate(-113.483 -58.965)"/>
            <path id="Path_79" d="M251.934 47.574a4.537 4.537 0 0 0 2.926 2.926 4.536 4.536 0 0 0-2.926 2.926 4.539 4.539 0 0 0-2.927-2.926 4.54 4.54 0 0 0 2.927-2.927z" data-name="Path 79" transform="translate(-92.25 -47.574)"/>
            <path id="Path_80" d="M57.03 85.518a4.537 4.537 0 0 0 2.927 2.927 4.536 4.536 0 0 0-2.927 2.926 4.536 4.536 0 0 0-2.93-2.926 4.537 4.537 0 0 0 2.927-2.927z" data-name="Path 80" transform="translate(-50.171 -55.766)"/>
            <path id="Path_81" d="M161.633 75.395a4.536 4.536 0 0 0 2.926 2.927 4.536 4.536 0 0 0-2.926 2.927 4.539 4.539 0 0 0-2.927-2.927 4.539 4.539 0 0 0 2.927-2.927z" data-name="Path 81" transform="translate(-72.755 -53.58)"/>
            <path id="Path_82" d="M52.016 261.637a4.535 4.535 0 0 0 2.927 2.927 4.535 4.535 0 0 0-2.927 2.927 4.535 4.535 0 0 0-2.927-2.927 4.535 4.535 0 0 0 2.927-2.927z" data-name="Path 82" transform="translate(-49.089 -93.789)"/>
        </g>
    </g>
</svg>
