<svg xmlns="http://www.w3.org/2000/svg" width="97.183" height="44.439" viewBox="0 0 97.183 44.439">
    <defs>
        <style>
            .cls-1{fill:#4570f5}.cls-2{fill:#fcb833}
        </style>
    </defs>
    <g id="logo" transform="translate(-244.882 -383.342)">
        <path id="Path_1" d="M424.916 562.79a5.67 5.67 0 1 1-5.67-5.67 5.67 5.67 0 0 1 5.67 5.67z" class="cls-1" data-name="Path 1" transform="translate(-136.563 -140.679)"/>
        <path id="Path_2" d="M266.43 415.334l3.041-3.041a7.555 7.555 0 1 0-11.033.377l-5.346 5.346a15.122 15.122 0 1 1 23.723-3.024l2.743 2.743a18.9 18.9 0 1 0-5.363 5.363z" class="cls-1" data-name="Path 2" transform="translate(0 -4.113)"/>
        <path id="Path_3" d="M481.934 458.484a1.163 1.163 0 0 1-.339.857 1.114 1.114 0 0 1-.817.339h-5.263a1.29 1.29 0 0 1-.658-.2.842.842 0 0 1-.419-.478l-.638-1.276a16.812 16.812 0 0 1-3.648 1.794 12.634 12.634 0 0 1-4.126.638q-3.868 0-5.8-2.093a8.649 8.649 0 0 1-1.934-6.08v-14.074a1.085 1.085 0 0 1 .359-.817 1.183 1.183 0 0 1 .837-.339h6.812a1.183 1.183 0 0 1 .837.339 1.083 1.083 0 0 1 .359.817v12.32q0 2.632 1.515 2.632a4.314 4.314 0 0 0 .817-.1 7.406 7.406 0 0 0 1.136-.339h-.04q.518-.239.977-.418t.858-.379v-13.716a1.083 1.083 0 0 1 .359-.817 1.182 1.182 0 0 1 .837-.339h6.818a1.156 1.156 0 0 1 1.156 1.156z" class="cls-2" data-name="Path 3" transform="translate(-172.762 -43.24)"/>
        <path id="Path_4" d="M593.049 457.139a.869.869 0 0 1-.718-.359 1.321 1.321 0 0 1-.279-.837v-21.132a1.324 1.324 0 0 1 .279-.837.868.868 0 0 1 .718-.359h5.622a1.647 1.647 0 0 1 .5.1 3.288 3.288 0 0 1 .578.259 1.977 1.977 0 0 1 .478.379.677.677 0 0 1 .2.459v21.131a1.326 1.326 0 0 1-.279.837.835.835 0 0 1-.678.359z" class="cls-2" data-name="Path 4" transform="translate(-281.046 -40.698)"/>
        <path id="Path_5" d="M664.895 436.964a1.115 1.115 0 0 1 .817.339 1.165 1.165 0 0 1 .339.857v5.184l-7.815 8.691h7.057a1.227 1.227 0 0 1 1.2 1.2v5.423a1.129 1.129 0 0 1-.359.857 1.182 1.182 0 0 1-.838.339h-18.5a1.112 1.112 0 0 1-.817-.339 1.16 1.16 0 0 1-.339-.857v-4.948l7.815-8.931h-6.1a1.085 1.085 0 0 1-.817-.358 1.182 1.182 0 0 1-.339-.838v-5.423a1.162 1.162 0 0 1 .339-.857 1.115 1.115 0 0 1 .817-.339z" class="cls-2" data-name="Path 5" transform="translate(-324.424 -43.409)"/>
        <path id="Path_6" d="M600.21 387.594a4.252 4.252 0 1 1-4.253-4.252 4.252 4.252 0 0 1 4.253 4.252z" class="cls-2" data-name="Path 6" transform="translate(-280.765)"/>
    </g>
</svg>
